<svg xmlns="http://www.w3.org/2000/svg" width="45" height="44"><g transform="translate(0 0)"><g transform="translate(0 0)"><path d="M 14.166 39.072 C 8.256 38.194 4.869 33.816 4.869 26.83 L 4.869 4.968 L 10.414 4.968 L 10.414 0 L 0 0 L 0 4.968 L 0.014 4.968 L 0.014 26.83 C 0.014 37.149 6.619 44 16.461 44 C 17.506 44.002 18.55 43.918 19.582 43.751 C 18.044 42.925 16.646 41.859 15.439 40.593 C 14.984 40.113 14.559 39.605 14.166 39.072 Z" fill="rgb(255, 255, 255)"></path><path d="M 44.695 0 L 27.792 0 L 27.792 26.83 C 27.792 31.057 26.589 34.334 24.346 36.45 C 25.615 36.969 26.969 37.242 28.338 37.256 L 28.814 37.256 C 29.163 37.256 29.509 37.242 29.839 37.217 C 31.685 34.431 32.713 30.893 32.713 26.817 L 32.713 4.968 L 40.145 4.968 L 40.145 26.83 C 40.145 34.668 36.002 39.236 28.814 39.236 C 28.63 39.236 28.454 39.236 28.28 39.222 C 26.075 39.156 24.165 38.665 22.577 37.768 C 19.12 35.848 17.222 32.065 17.222 26.83 L 17.222 6.933 L 12.361 6.933 L 12.361 26.83 C 12.361 31.96 13.992 36.234 16.841 39.228 C 18.444 40.908 20.415 42.186 22.597 42.958 C 24.593 43.666 26.697 44.019 28.814 44 C 38.526 44 45.066 37.145 45.066 26.83 L 45.066 0 Z" fill="rgb(255, 255, 255)"></path><path d="M 12.996 4.968 L 17.222 4.968 L 17.222 0.637 C 17.222 0.468 17.156 0.305 17.037 0.186 C 16.919 0.066 16.758 -0.001 16.59 0 L 12.361 0 L 12.361 4.332 C 12.361 4.501 12.428 4.664 12.547 4.783 C 12.666 4.903 12.828 4.97 12.996 4.968 Z" fill="rgb(255, 255, 255)"></path></g></g></svg>