<svg width="176" height="40" viewBox="0 0 176 40" fill="none" xmlns="http://www.w3.org/2000/svg">
<path d="M40.6933 14C41.1733 14 41.3333 14.1486 41.3333 14.5486V23.6H46.76C47.2267 23.6 47.4 23.7486 47.4 24.1486V24.9486C47.4 25.3486 47.2267 25.4971 46.76 25.4971H39.6133C39.1467 25.4971 38.96 25.3486 38.96 24.9486V14.5486C38.96 14.1486 39.1467 14 39.6133 14H40.6933Z" fill="white"/>
<path d="M52.1333 17.9886C52.1333 15.3486 54.08 13.76 57.4667 13.76C60.8533 13.76 62.8 15.3486 62.8 17.9886V21.5086C62.8 24.1486 60.84 25.7371 57.4667 25.7371C54.0933 25.7371 52.1333 24.1486 52.1333 21.5086V17.9886ZM60.56 17.9886C60.56 16.5029 59.48 15.7029 57.5333 15.7029C55.5867 15.7029 54.52 16.5143 54.52 17.9886V21.5314C54.52 23.0286 55.5867 23.8171 57.5333 23.8171C59.48 23.8171 60.56 22.9943 60.56 21.5314V17.9886Z" fill="white"/>
<path d="M78.68 19.2C79.2 19.2 79.32 19.3486 79.32 19.7486V21.92C79.3341 22.4314 79.2145 22.9392 78.97 23.4058C78.7253 23.8726 78.3621 24.2864 77.9067 24.6171C76.7756 25.3891 75.3495 25.7721 73.9067 25.6914C70.4533 25.6914 68.5733 24.1029 68.5733 21.4629V17.92C68.5733 15.3143 70.52 13.7143 73.9067 13.7143C76.5733 13.7143 78.3067 14.6171 79.04 16.4229C79.0811 16.4907 79.1031 16.5658 79.1043 16.6422C79.1055 16.7186 79.0859 16.7943 79.0471 16.863C79.0083 16.9318 78.9512 16.9919 78.8805 17.0385C78.8099 17.085 78.7275 17.1169 78.64 17.1314L77.6 17.44C77.1467 17.5771 76.96 17.4971 76.8 17.0971C76.5791 16.609 76.1747 16.1978 75.6507 15.9288C75.1267 15.6598 74.5131 15.548 73.9067 15.6114C71.9467 15.6114 70.88 16.4229 70.88 17.8971V21.5314C70.88 23.0286 71.96 23.8171 73.9067 23.8171C75.8533 23.8171 77.0533 23.0514 77.0533 21.9314V21.0857H74.16C73.68 21.0857 73.5067 20.9257 73.5067 20.5257V19.7486C73.5067 19.3486 73.68 19.2 74.16 19.2H78.68Z" fill="white"/>
<path d="M84.8267 17.9886C84.8267 15.3486 86.7733 13.76 90.16 13.76C93.5467 13.76 95.4933 15.3486 95.4933 17.9886V21.5086C95.4933 24.1486 93.5333 25.7371 90.16 25.7371C86.7867 25.7371 84.8267 24.1486 84.8267 21.5086V17.9886ZM93.24 17.9886C93.24 16.5029 92.16 15.7029 90.2267 15.7029C88.2933 15.7029 87.2 16.5143 87.2 17.9886V21.5314C87.2 23.0286 88.28 23.8171 90.2267 23.8171C92.1733 23.8171 93.24 22.9943 93.24 21.5314V17.9886Z" fill="white"/>
<path d="M101.773 14.3314C101.773 14.08 101.867 14 102.16 14H102.773C103.067 14 103.133 14.08 103.133 14.3314V25.1657C103.133 25.4171 103.133 25.4971 102.773 25.4971H102.16C101.867 25.4971 101.773 25.4171 101.773 25.1657V14.3314Z" fill="white"/>
<path d="M115.28 14C116.39 14 117.455 14.3781 118.24 15.0511C119.026 15.724 119.467 16.6368 119.467 17.5886C119.467 18.5403 119.026 19.4531 118.24 20.1261C117.455 20.7991 116.39 21.1771 115.28 21.1771H111.28V25.1657C111.28 25.4171 111.213 25.4971 110.933 25.4971H110.307C110.027 25.4971 109.92 25.4171 109.92 25.1657V14.3314C109.92 14.08 110.027 14 110.307 14H115.28ZM115.16 20.0457C115.542 20.0457 115.92 19.9813 116.272 19.8561C116.625 19.7309 116.945 19.5473 117.215 19.316C117.485 19.0847 117.699 18.8099 117.845 18.5078C117.991 18.2055 118.067 17.8815 118.067 17.5543C118.067 17.2271 117.991 16.9031 117.845 16.6008C117.699 16.2986 117.485 16.0239 117.215 15.7926C116.945 15.5613 116.625 15.3777 116.272 15.2525C115.92 15.1273 115.542 15.0629 115.16 15.0629H111.16V20.0457H115.16Z" fill="white"/>
<path d="M129.88 13.7714C130.909 13.6741 131.948 13.8639 132.842 14.3127C133.735 14.7616 134.436 15.4455 134.84 16.2629C134.947 16.4457 134.84 16.5943 134.627 16.6857L134.04 16.9143C133.8 16.9943 133.707 16.9829 133.56 16.7657C133.258 16.1591 132.739 15.6505 132.077 15.3136C131.415 14.9767 130.646 14.8288 129.88 14.8914C127.627 14.8914 126.4 15.6571 126.4 17.0286C126.387 17.4477 126.551 17.8568 126.862 18.1802C127.174 18.5037 127.611 18.7198 128.093 18.7886C128.81 18.989 129.554 19.1119 130.307 19.1543C131.218 19.1959 132.117 19.3538 132.973 19.6229C133.631 19.801 134.196 20.1674 134.575 20.6607C134.953 21.1539 135.123 21.7439 135.053 22.3314C135.053 24.4686 133.24 25.76 129.907 25.76C128.813 25.8672 127.71 25.6501 126.781 25.1447C125.852 24.6394 125.153 23.8763 124.8 22.9829C124.776 22.9422 124.764 22.8975 124.763 22.852C124.762 22.8065 124.772 22.7615 124.794 22.72C124.816 22.6785 124.848 22.6416 124.888 22.612C124.928 22.5823 124.975 22.5607 125.027 22.5486L125.613 22.3657C125.659 22.3495 125.709 22.3417 125.759 22.3429C125.809 22.344 125.858 22.3541 125.903 22.3723C125.948 22.3906 125.989 22.4167 126.021 22.449C126.054 22.4814 126.079 22.5191 126.093 22.56C126.392 23.2056 126.922 23.753 127.608 24.123C128.293 24.4928 129.099 24.6659 129.907 24.6171C132.427 24.6171 133.667 23.8629 133.667 22.3314C133.691 21.9289 133.547 21.5322 133.261 21.212C132.975 20.8919 132.566 20.6689 132.107 20.5829C131.417 20.4065 130.705 20.2991 129.987 20.2629L128.547 20.1029C128.096 20.0209 127.651 19.9178 127.213 19.7943C126.781 19.6824 126.378 19.5 126.027 19.2571C125.673 18.9826 125.394 18.6448 125.21 18.2675C125.025 17.8903 124.94 17.483 124.96 17.0743C125.053 15.0743 126.8 13.7714 129.88 13.7714Z" fill="white"/>
<path d="M142.24 21.5886C142.296 22.3968 142.711 23.156 143.399 23.7111C144.087 24.2662 144.996 24.5752 145.94 24.5752C146.884 24.5752 147.793 24.2662 148.481 23.7111C149.169 23.156 149.583 22.3968 149.64 21.5886V14.3314C149.64 14.08 149.733 14 150.027 14H150.64C150.933 14 151.027 14.08 151.027 14.3314V21.5771C151.027 24.1714 149.24 25.7371 145.947 25.7371C142.653 25.7371 140.867 24.1714 140.867 21.5771V14.3314C140.867 14.08 140.96 14 141.24 14H141.867C142.147 14 142.24 14.08 142.24 14.3314V21.5886Z" fill="white"/>
<path d="M169.427 14C169.72 14 169.813 14.08 169.813 14.3314V25.1657C169.813 25.4171 169.72 25.4971 169.427 25.4971H168.867C168.587 25.4971 168.493 25.4171 168.493 25.1657V18.5714C168.493 17.612 168.569 16.6536 168.72 15.7029H168.64C168.224 16.5722 167.737 17.4161 167.187 18.2286L164.32 22.56C164.285 22.6352 164.224 22.6994 164.145 22.7443C164.067 22.7891 163.975 22.8126 163.88 22.8114H163.507C163.411 22.8119 163.317 22.7882 163.236 22.7437C163.156 22.699 163.092 22.6352 163.053 22.56L160.147 18.1829C159.631 17.3821 159.185 16.5493 158.813 15.6914H158.733C158.869 16.6509 158.941 17.6163 158.947 18.5829V25.1657C158.947 25.4171 158.853 25.4971 158.56 25.4971H158.04C157.747 25.4971 157.653 25.4171 157.653 25.1657V14.3314C157.653 14.08 157.747 14 158.04 14H158.52C158.629 13.9913 158.74 14.0118 158.835 14.0589C158.931 14.1059 159.007 14.1773 159.053 14.2629L163.72 21.3714L168.36 14.3314C168.507 14.0914 168.587 14.0571 168.88 14.0571L169.427 14Z" fill="white"/>
<path d="M16.9733 23.76V32.0229C16.9733 32.3397 16.8265 32.6434 16.5652 32.8673C16.304 33.0913 15.9496 33.2171 15.58 33.2171C15.2105 33.2171 14.8561 33.0913 14.5948 32.8673C14.3335 32.6434 14.1867 32.3397 14.1867 32.0229V23.7714C14.5747 24.0143 15.0397 24.1498 15.52 24.16C16.0435 24.1728 16.5564 24.0317 16.9733 23.76ZM28.84 21.3714C28.4864 21.3714 28.1472 21.4919 27.8972 21.7062C27.6472 21.9205 27.5067 22.2112 27.5067 22.5143V23.9543C27.5067 24.2711 27.6535 24.5749 27.9148 24.7987C28.176 25.0227 28.5304 25.1486 28.9 25.1486C29.2696 25.1486 29.624 25.0227 29.8852 24.7987C30.1465 24.5749 30.2933 24.2711 30.2933 23.9543V22.5714C30.3037 22.4075 30.2728 22.2437 30.2027 22.091C30.1325 21.9383 30.0249 21.8002 29.8869 21.6864C29.7491 21.5726 29.5841 21.4855 29.4036 21.4311C29.2229 21.3768 29.0307 21.3565 28.84 21.3714ZM11.16 26.8914C10.6802 26.8791 10.2158 26.7438 9.82666 26.5029V34.7886C9.82666 35.1069 9.97416 35.4121 10.2367 35.6371C10.4993 35.8622 10.8554 35.9886 11.2267 35.9886C11.598 35.9886 11.9541 35.8622 12.2166 35.6371C12.4792 35.4121 12.6267 35.1069 12.6267 34.7886V26.56C12.1913 26.8013 11.6775 26.9174 11.16 26.8914ZM24.4933 18.8914C24.3127 18.8837 24.1321 18.9075 23.9625 18.9615C23.7931 19.0154 23.6381 19.0984 23.5071 19.2053C23.3761 19.3122 23.272 19.4408 23.2008 19.5833C23.1297 19.7258 23.0931 19.8793 23.0933 20.0343V26.4C23.0933 26.7183 23.2408 27.0235 23.5033 27.2486C23.766 27.4736 24.122 27.6 24.4933 27.6C24.8647 27.6 25.2208 27.4736 25.4833 27.2486C25.7459 27.0235 25.8933 26.7183 25.8933 26.4V20.1143C25.904 19.9494 25.8728 19.7845 25.8019 19.6309C25.7309 19.4773 25.6221 19.3386 25.4827 19.2246C25.3432 19.1105 25.1767 19.0237 24.9944 18.9702C24.8121 18.9166 24.6184 18.8975 24.4267 18.9143L24.4933 18.8914ZM20.0667 21.3371C19.5644 21.3342 19.0756 21.1985 18.6667 20.9486V29.2571C18.6667 29.5754 18.8141 29.8807 19.0767 30.1057C19.3393 30.3307 19.6953 30.4571 20.0667 30.4571C20.438 30.4571 20.794 30.3307 21.0567 30.1057C21.3192 29.8807 21.4667 29.5754 21.4667 29.2571V20.96C21.0437 21.2301 20.5273 21.3709 20 21.36L20.0667 21.3371ZM8.13333 27.7029V4.49143C8.12983 4.20849 7.99623 3.93818 7.76156 3.73918C7.52689 3.54017 7.21011 3.42856 6.88 3.42857H6.58667C6.25656 3.42856 5.93977 3.54017 5.70511 3.73918C5.47044 3.93818 5.33684 4.20849 5.33333 4.49143V27.7029C5.33333 27.9878 5.46539 28.261 5.70043 28.4625C5.93547 28.664 6.25427 28.7771 6.58667 28.7771H6.88C7.21241 28.7771 7.5312 28.664 7.76624 28.4625C8.00129 28.261 8.13333 27.9878 8.13333 27.7029ZM11.3067 26.0114H11.0133C10.6809 26.0114 10.3621 25.8983 10.1271 25.6968C9.89205 25.4953 9.76 25.2221 9.76 24.9371V7.25714C9.76352 6.97422 9.89711 6.70388 10.1318 6.50489C10.3664 6.30588 10.6832 6.19427 11.0133 6.19428H11.3067C11.6368 6.19427 11.9536 6.30588 12.1882 6.50489C12.4229 6.70388 12.5565 6.97422 12.56 7.25714V24.96C12.56 25.2449 12.4279 25.5182 12.1929 25.7197C11.9579 25.9211 11.6391 26.0343 11.3067 26.0343V26.0114ZM15.72 23.2914H15.4133C15.0845 23.2914 14.7691 23.1794 14.5365 22.9801C14.304 22.7808 14.1733 22.5105 14.1733 22.2286V10C14.1716 9.85946 14.2024 9.72002 14.2639 9.58975C14.3253 9.45947 14.4164 9.34096 14.5317 9.24105C14.6471 9.14114 14.7844 9.06183 14.9357 9.0077C15.0871 8.95358 15.2493 8.9257 15.4133 8.92571H15.72C16.0501 8.92873 16.3655 9.04323 16.5976 9.24438C16.8299 9.44552 16.96 9.71705 16.96 10V22.2286C16.96 22.5105 16.8293 22.7808 16.5968 22.9801C16.3643 23.1794 16.0489 23.2914 15.72 23.2914ZM20.1333 20.4914H19.8533C19.5232 20.4914 19.2064 20.3799 18.9717 20.1808C18.7371 19.9818 18.6035 19.7115 18.6 19.4286V12.8457C18.5891 12.699 18.6133 12.5519 18.6715 12.4135C18.7295 12.2752 18.8201 12.1485 18.9376 12.0414C19.0551 11.9342 19.1969 11.8489 19.3545 11.7906C19.512 11.7325 19.6817 11.7025 19.8533 11.7029H20.1467C20.4791 11.7029 20.7979 11.816 21.0329 12.0175C21.268 12.219 21.4 12.4922 21.4 12.7771V19.4057C21.4017 19.5478 21.3707 19.6887 21.3084 19.8203C21.2463 19.952 21.1543 20.0718 21.0376 20.1728C20.9211 20.2737 20.7824 20.3538 20.6293 20.4086C20.4764 20.4633 20.3124 20.4914 20.1467 20.4914H20.1333ZM24.56 18.0343H24.2667C23.9343 18.0343 23.6155 17.9211 23.3804 17.7197C23.1453 17.5182 23.0133 17.2449 23.0133 16.96V15.2571C23.0168 14.9742 23.1504 14.7039 23.3851 14.5049C23.6197 14.3058 23.9365 14.1943 24.2667 14.1943H24.56C24.8901 14.1943 25.2069 14.3058 25.4416 14.5049C25.6763 14.7039 25.8099 14.9742 25.8133 15.2571V16.96C25.8133 17.243 25.6832 17.5145 25.4509 17.7157C25.2188 17.9168 24.9035 18.0313 24.5733 18.0343H24.56Z" fill="white"/>
</svg>
