<svg width="54" height="40" viewBox="0 0 54 40" fill="none" xmlns="http://www.w3.org/2000/svg">
<g clip-path="url(#clip0_602_37)">
<path d="M54 1.46341C54 1.85154 53.842 2.22376 53.5607 2.49821C53.2794 2.77265 52.8978 2.92683 52.5 2.92683C52.1022 2.92683 51.7206 2.77265 51.4393 2.49821C51.158 2.22376 51 1.85154 51 1.46341C51 1.07529 51.158 0.703068 51.4393 0.428624C51.7206 0.154181 52.1022 0 52.5 0C52.8978 0 53.2794 0.154181 53.5607 0.428624C53.842 0.703068 54 1.07529 54 1.46341Z" fill="white"/>
<path fill-rule="evenodd" clip-rule="evenodd" d="M13.75 39.799C6.156 39.799 0 33.7932 0 26.3844V0.975609H5V26.3844C5 28.6484 5.92187 30.8197 7.56282 32.4207C9.20376 34.0216 11.4294 34.921 13.75 34.921C18.643 34.921 22.5 31.242 22.5 26.5854H27.5V33.9024C27.5 34.2259 27.6317 34.5361 27.8661 34.7648C28.1005 34.9935 28.4185 35.122 28.75 35.122C29.0815 35.122 29.3995 34.9935 29.6339 34.7648C29.8683 34.5361 30 34.2259 30 33.9024V25.2439C29.0918 25.4248 28.1538 25.4063 27.2538 25.1898C26.3539 24.9733 25.5146 24.5643 24.7967 23.9923C24.0787 23.4203 23.5002 22.6997 23.103 21.8826C22.7058 21.0656 22.4998 20.1726 22.5 19.2683V7.07317C22.5 5.456 23.1585 3.90506 24.3306 2.76154C25.5027 1.61803 27.0924 0.975609 28.75 0.975609C30.4076 0.975609 31.9973 1.61803 33.1694 2.76154C34.3415 3.90506 35 5.456 35 7.07317V33.9024C35 34.2259 35.1317 34.5361 35.3661 34.7648C35.6005 34.9935 35.9185 35.122 36.25 35.122C36.5815 35.122 36.8995 34.9935 37.1339 34.7648C37.3683 34.5361 37.5 34.2259 37.5 33.9024V7.07317C37.5 5.456 38.1585 3.90506 39.3306 2.76154C40.5027 1.61803 42.0924 0.975609 43.75 0.975609C45.4076 0.975609 46.9973 1.61803 48.1694 2.76154C49.3415 3.90506 50 5.456 50 7.07317V33.9024C50 35.0348 49.6768 36.1448 49.0666 37.1081C48.4564 38.0714 47.5832 38.8498 46.5451 39.3563C45.5069 39.8627 44.3447 40.0771 43.1887 39.9754C42.0327 39.8737 40.9286 39.4599 40 38.7805C38.9191 39.5739 37.6026 40.002 36.25 40C34.8974 40.002 33.5809 39.5739 32.5 38.7805C31.7478 39.3308 30.878 39.7085 29.9554 39.8855C29.0328 40.0624 28.0812 40.034 27.1714 39.8024C26.2616 39.5708 25.4171 39.142 24.7008 38.5478C23.9844 37.9536 23.4147 37.2095 23.034 36.3707C20.578 38.5141 17.311 39.799 13.75 39.799ZM43.75 35.122C43.06 35.122 42.5 34.5756 42.5 33.9024V7.07317C42.5 6.74974 42.6317 6.43955 42.8661 6.21084C43.1005 5.98214 43.4185 5.85366 43.75 5.85366C44.0815 5.85366 44.3995 5.98214 44.6339 6.21084C44.8683 6.43955 45 6.74974 45 7.07317V33.9024C45 34.5756 44.44 35.122 43.75 35.122ZM30 19.2683C30 19.5917 29.8683 19.9019 29.6339 20.1306C29.3995 20.3593 29.0815 20.4878 28.75 20.4878C28.4185 20.4878 28.1005 20.3593 27.8661 20.1306C27.6317 19.9019 27.5 19.5917 27.5 19.2683V7.07317C27.5 6.74974 27.6317 6.43955 27.8661 6.21084C28.1005 5.98214 28.4185 5.85366 28.75 5.85366C29.0815 5.85366 29.3995 5.98214 29.6339 6.21084C29.8683 6.43955 30 6.74974 30 7.07317V19.2683Z" fill="white"/>
<path fill-rule="evenodd" clip-rule="evenodd" d="M7.5 26.5854C7.5 28.2025 8.15848 29.7535 9.33058 30.897C10.5027 32.0405 12.0924 32.6829 13.75 32.6829C15.4076 32.6829 16.9973 32.0405 18.1694 30.897C19.3415 29.7535 20 28.2025 20 26.5854V7.07317C20 5.456 19.3415 3.90506 18.1694 2.76154C16.9973 1.61803 15.4076 0.975609 13.75 0.975609C12.0924 0.975609 10.5027 1.61803 9.33058 2.76154C8.15848 3.90506 7.5 5.456 7.5 7.07317V26.5854ZM13.75 27.8049C13.06 27.8049 12.5 27.2585 12.5 26.5854V7.07317C12.5 6.74974 12.6317 6.43955 12.8661 6.21084C13.1005 5.98214 13.4185 5.85366 13.75 5.85366C14.0815 5.85366 14.3995 5.98214 14.6339 6.21084C14.8683 6.43955 15 6.74974 15 7.07317V26.5854C15 27.2585 14.44 27.8049 13.75 27.8049Z" fill="white"/>
</g>
<defs>
<clipPath id="clip0_602_37">
<rect width="54" height="40" fill="white"/>
</clipPath>
</defs>
</svg>
